<?xml version="1.0" encoding="UTF-8" standalone="no"?>
<!-- Created with Inkscape (http://www.inkscape.org/) -->

<svg
   version="1.1"
   id="svg5634"
   xml:space="preserve"
   width="682.66669"
   height="682.66669"
   viewBox="0 0 682.66669 682.66669"
   xmlns="http://www.w3.org/2000/svg"
   xmlns:svg="http://www.w3.org/2000/svg"><defs
     id="defs5638"><clipPath
       clipPathUnits="userSpaceOnUse"
       id="clipPath5648"><path
         d="M 0,512 H 512 V 0 H 0 Z"
         id="path5646" /></clipPath></defs><g
     id="g5640"
     transform="matrix(1.3333333,0,0,-1.3333333,0,682.66667)"><g
       id="g5642"><g
         id="g5644"
         clip-path="url(#clipPath5648)"><g
           id="g5650"
           transform="translate(504.5,169.0186)"><path
             d="m 0,0 h -64.901 c -9.143,0 -16.555,7.411 -16.555,16.554 v 79.997 c 0,9.143 7.412,16.554 16.555,16.554 H 0"
             style="fill:none;stroke:#000000;stroke-width:15;stroke-linecap:round;stroke-linejoin:round;stroke-miterlimit:10;stroke-dasharray:none;stroke-opacity:1"
             id="path5652" /></g><g
           id="g5654"
           transform="translate(423.0439,185.5723)"><path
             d="m 0,0 h -33.526 c -5.95,0 -10.773,4.823 -10.773,10.772 v 58.454 c 0,5.949 4.823,10.771 10.773,10.771 H 0 Z"
             style="fill:none;stroke:#000000;stroke-width:15;stroke-linecap:round;stroke-linejoin:round;stroke-miterlimit:10;stroke-dasharray:none;stroke-opacity:1"
             id="path5656" /></g><g
           id="g5658"
           transform="translate(202.1816,158.6221)"><path
             d="m 0,0 c -5.209,-5.208 -13.653,-5.21 -18.863,-0.002 -5.212,5.209 -5.213,13.658 -0.002,18.869 l 51.268,51.261 c 6.505,6.504 15.326,10.157 24.526,10.157 H 176.563 V 53.613 H 67.98 c -9.2,0 -18.022,-3.654 -24.527,-10.16 L 26.141,26.141"
             style="fill:none;stroke:#000000;stroke-width:15;stroke-linecap:round;stroke-linejoin:round;stroke-miterlimit:10;stroke-dasharray:none;stroke-opacity:1"
             id="path5660" /></g><g
           id="g5662"
           transform="translate(7.5,82.1875)"><path
             d="M 0,0 H 497"
             style="fill:none;stroke:#000000;stroke-width:15;stroke-linecap:round;stroke-linejoin:round;stroke-miterlimit:10;stroke-dasharray:none;stroke-opacity:1"
             id="path5664" /></g><g
           id="g5666"
           transform="translate(504.5,82.1875)"><path
             d="M 0,0 H -321.231 V 43.788 H 0"
             style="fill:none;stroke:#000000;stroke-width:15;stroke-linecap:round;stroke-linejoin:round;stroke-miterlimit:10;stroke-dasharray:none;stroke-opacity:1"
             id="path5668" /></g><g
           id="g5670"
           transform="translate(193.3525,429.8154)"><path
             d="M 0,0 V -166.991"
             style="fill:none;stroke:#000000;stroke-width:15;stroke-linecap:round;stroke-linejoin:round;stroke-miterlimit:10;stroke-dasharray:none;stroke-opacity:1"
             id="path5672" /></g><g
           id="g5674"
           transform="translate(63.9277,187.1006)"><path
             d="M 0,0 38.453,-16.985"
             style="fill:none;stroke:#000000;stroke-width:15;stroke-linecap:round;stroke-linejoin:round;stroke-miterlimit:10;stroke-dasharray:none;stroke-opacity:1"
             id="path5676" /></g><g
           id="g5678"
           transform="translate(15.9746,208.2822)"><path
             d="M 0,0 16.111,-7.117"
             style="fill:none;stroke:#000000;stroke-width:15;stroke-linecap:round;stroke-linejoin:round;stroke-miterlimit:10;stroke-dasharray:none;stroke-opacity:1"
             id="path5680" /></g><g
           id="g5682"
           transform="translate(310.1895,312.208)"><path
             d="M 0,0 -46.984,-73.301"
             style="fill:none;stroke:#000000;stroke-width:15;stroke-linecap:round;stroke-linejoin:round;stroke-miterlimit:10;stroke-dasharray:none;stroke-opacity:1"
             id="path5684" /></g><g
           id="g5686"
           transform="translate(314.4902,183.4395)"><path
             d="M 0,0 -30.166,-13.324"
             style="fill:none;stroke:#000000;stroke-width:15;stroke-linecap:round;stroke-linejoin:round;stroke-miterlimit:10;stroke-dasharray:none;stroke-opacity:1"
             id="path5688" /></g><g
           id="g5690"
           transform="translate(83.3203,301.5928)"><path
             d="M 0,0 56.364,-87.934"
             style="fill:none;stroke:#000000;stroke-width:15;stroke-linecap:round;stroke-linejoin:round;stroke-miterlimit:10;stroke-dasharray:none;stroke-opacity:1"
             id="path5692" /></g><g
           id="g5694"
           transform="translate(139.4775,82.1846)"><path
             d="M 0,0 H 43.791 V 43.791 H 17.049 C 7.633,43.791 0,36.158 0,26.742 Z"
             style="fill:none;stroke:#000000;stroke-width:15;stroke-linecap:round;stroke-linejoin:round;stroke-miterlimit:10;stroke-dasharray:none;stroke-opacity:1"
             id="path5696" /></g><g
           id="g5698"
           transform="translate(72.7549,329.7773)"><path
             d="m 0,0 c 0,-4.143 -3.358,-7.5 -7.5,-7.5 -4.143,0 -7.5,3.357 -7.5,7.5 0,4.142 3.357,7.5 7.5,7.5 C -3.358,7.5 0,4.142 0,0"
             style="fill:#000000;fill-opacity:1;fill-rule:nonzero;stroke:none"
             id="path5700" /></g><g
           id="g5702"
           transform="translate(200.8525,229.3828)"><path
             d="m 0,0 c 0,-4.143 -3.357,-7.5 -7.5,-7.5 -4.142,0 -7.5,3.357 -7.5,7.5 0,4.142 3.358,7.5 7.5,7.5 C -3.357,7.5 0,4.142 0,0"
             style="fill:#000000;fill-opacity:1;fill-rule:nonzero;stroke:none"
             id="path5704" /></g></g></g></g></svg>
