<?xml version="1.0" encoding="UTF-8"?>
<svg xmlns="http://www.w3.org/2000/svg" xmlns:xlink="http://www.w3.org/1999/xlink" version="1.1" id="Capa_1" x="0px" y="0px" viewBox="0 0 512 512" style="enable-background:new 0 0 512 512;" xml:space="preserve" width="512" height="512">
<g>
	
		<line style="fill:none;stroke:#000000;stroke-width:15;stroke-linecap:round;stroke-linejoin:round;stroke-miterlimit:10;" x1="187.5" y1="157.5" x2="187.5" y2="127.5"/>
	
		<polyline style="fill:none;stroke:#000000;stroke-width:15;stroke-linecap:round;stroke-linejoin:round;stroke-miterlimit:10;" points="&#10;&#9;&#9;217.5,37.5 482,37.5 482,7.5 37.5,7.5 37.5,37.5 90,37.5 90,127.5 37.5,127.5 37.5,157.5 482,157.5 482,127.5 120,127.5 120,37.5 &#10;&#9;&#9;187.5,37.5 187.5,7.5 &#9;"/>
	
		<line style="fill:none;stroke:#000000;stroke-width:15;stroke-linecap:round;stroke-linejoin:round;stroke-miterlimit:10;" x1="437" y1="127.5" x2="437" y2="37.5"/>
	
		<rect x="7.5" y="202.5" style="fill:none;stroke:#000000;stroke-width:15;stroke-linecap:round;stroke-linejoin:round;stroke-miterlimit:10;" width="497" height="302"/>
	
		<line style="fill:none;stroke:#000000;stroke-width:15;stroke-linecap:round;stroke-linejoin:round;stroke-miterlimit:10;" x1="98.917" y1="504.5" x2="98.917" y2="429.5"/>
	
		<line style="fill:none;stroke:#000000;stroke-width:15;stroke-linecap:round;stroke-linejoin:round;stroke-miterlimit:10;" x1="413.083" y1="504.5" x2="413.083" y2="429.5"/>
	
		<line style="fill:none;stroke:#000000;stroke-width:15;stroke-linecap:round;stroke-linejoin:round;stroke-miterlimit:10;" x1="504.5" y1="429.5" x2="7.5" y2="429.5"/>
	
		<polyline style="fill:none;stroke:#000000;stroke-width:15;stroke-linecap:round;stroke-linejoin:round;stroke-miterlimit:10;" points="&#10;&#9;&#9;383.083,504.5 350.25,474.5 161.75,474.5 128.917,504.5 &#9;"/>
	<path style="fill:none;stroke:#000000;stroke-width:15;stroke-linecap:round;stroke-linejoin:round;stroke-miterlimit:10;" d="&#10;&#9;&#9;M83.917,399.5H37.5v-137c11.951,0,22.67-5.46,30-14.105c7.676,8.645,18.901,14.105,31.417,14.105s23.741-5.46,31.417-14.105&#10;&#9;&#9;c7.676,8.645,18.901,14.105,31.417,14.105s23.741-5.46,31.417-14.105c7.676,8.645,18.901,14.105,31.417,14.105&#10;&#9;&#9;c12.515,0,23.741-5.46,31.417-14.105c7.676,8.645,18.901,14.105,31.417,14.105c12.515,0,23.741-5.46,31.417-14.105&#10;&#9;&#9;c7.676,8.645,18.901,14.105,31.417,14.105s23.741-5.46,31.417-14.105c7.676,8.645,18.901,14.105,31.417,14.105&#10;&#9;&#9;c12.515,0,23.741-5.46,31.417-14.105c7.33,8.645,18.049,14.105,30,14.105v137H113.917"/>
</g>















</svg>
