<svg id="Layer_1" enable-background="new 0 0 512 512" height="512" viewBox="0 0 512 512" width="512" xmlns="http://www.w3.org/2000/svg"><path clip-rule="evenodd" d="m199.16 200.949c0-4.418 3.582-8 8-8h67.09c4.418 0 8 3.582 8 8s-3.582 8-8 8h-67.09c-4.418 0-8-3.582-8-8zm8-36.469h104.492c4.418 0 8-3.582 8-8s-3.582-8-8-8h-104.492c-4.418 0-8 3.582-8 8s3.582 8 8 8zm-103.502-24.89h37.501c8.917 0 16.495 5.767 19.25 13.76l12.47-11.317c3.271-2.971 8.331-2.726 11.3.548 2.969 3.271 2.724 8.331-.548 11.3l-22.098 20.054v23.53c0 11.234-9.14 20.375-20.375 20.375h-37.501c-11.234 0-20.375-9.141-20.375-20.375v-37.5c.002-11.235 9.142-20.375 20.376-20.375zm37.501 16h-37.501c-2.371 0-4.375 2.004-4.375 4.375v37.5c0 2.371 2.003 4.375 4.375 4.375h37.501c2.371 0 4.375-2.004 4.375-4.375v-9.01l-6.125 5.559c-1.528 1.388-3.453 2.076-5.375 2.076-2.052 0-4.1-.785-5.658-2.343l-18.208-18.207c-3.124-3.124-3.125-8.189 0-11.314 3.124-3.123 8.189-3.123 11.313 0l12.818 12.818 11.233-10.194v-6.885c.002-2.371-2.002-4.375-4.373-4.375zm43.021 92.172c2.969 3.271 2.724 8.331-.548 11.3l-22.098 20.054v23.531c0 11.234-9.14 20.374-20.375 20.374h-37.501c-11.234 0-20.375-9.14-20.375-20.374v-37.501c0-11.234 9.14-20.375 20.375-20.375h37.501c8.917 0 16.495 5.767 19.25 13.76l12.47-11.317c3.272-2.971 8.332-2.725 11.301.548zm-38.646 45.874-6.125 5.559c-1.528 1.388-3.453 2.076-5.375 2.076-2.052 0-4.1-.785-5.658-2.343l-18.208-18.207c-3.124-3.124-3.125-8.189 0-11.314 3.124-3.123 8.189-3.123 11.313 0l12.818 12.818 11.233-10.194v-6.885c0-2.371-2.003-4.375-4.375-4.375h-37.501c-2.371 0-4.375 2.004-4.375 4.375v37.501c0 2.371 2.003 4.374 4.375 4.374h37.501c2.371 0 4.375-2.003 4.375-4.374v-9.011zm38.646 59.307c2.969 3.271 2.724 8.331-.548 11.3l-22.098 20.054v23.53c0 11.234-9.14 20.375-20.375 20.375h-37.501c-11.234 0-20.375-9.141-20.375-20.375v-37.501c0-11.234 9.14-20.374 20.375-20.374h37.501c8.917 0 16.496 5.767 19.251 13.76l12.47-11.316c3.271-2.971 8.331-2.725 11.3.547zm-38.646 45.874-6.125 5.559c-1.528 1.388-3.453 2.076-5.375 2.076-2.052 0-4.1-.785-5.658-2.343l-18.208-18.208c-3.125-3.125-3.124-8.19 0-11.314 3.125-3.123 8.19-3.122 11.313 0l12.818 12.819 11.233-10.194v-6.886c0-2.371-2.003-4.374-4.375-4.374h-37.501c-2.371 0-4.375 2.003-4.375 4.374v37.501c0 2.371 2.003 4.375 4.375 4.375h37.501c2.371 0 4.375-2.004 4.375-4.375v-9.01zm361.567 86.222-20.476 21.103c-3.404 3.508-7.94 5.271-12.481 5.271-4.366 0-8.734-1.628-12.107-4.901l-56.717-55.035c-.91-.882-1.699-1.854-2.384-2.887v33.174c0 16.673-13.564 30.237-30.237 30.237h-342.461c-16.674-.001-30.238-13.565-30.238-30.238v-409.175c0-16.673 13.564-30.237 30.238-30.237h77.615v-5.441c0-4.418 3.582-8 8-8h43.023c6.817-17.299 23.523-28.91 42.592-28.91s35.775 11.611 42.592 28.909h43.023c4.418 0 8 3.582 8 8v5.441h77.615c16.673 0 30.237 13.564 30.237 30.237v183.876c13.417 18.382 21.349 41.01 21.349 65.459 0 21.232-5.98 41.092-16.34 57.99l22.644 22.219c2.184-1.011 4.572-1.577 7.056-1.614 4.663-.12 9.046 1.669 12.372 4.897l56.715 55.034c6.881 6.682 7.047 17.712.37 24.591zm-108.596-91.973c-2.148 2.577-4.408 5.059-6.776 7.432l19.888 19.518 7-7.215zm9.78-71.142c0-52.537-42.742-95.278-95.279-95.278s-95.279 42.741-95.279 95.278 42.742 95.279 95.279 95.279 95.279-42.742 95.279-95.279zm-113.202-263.573v14.936h68.917c4.418 0 8 3.582 8 8v146.327c5.293 3.323 10.288 7.079 14.935 11.218v-166.244c0-7.851-6.387-14.237-14.237-14.237zm-171.23 28.376h155.23v-41.818h-40.867c-3.696 0-6.911-2.531-7.777-6.124-3.235-13.416-15.148-22.785-28.971-22.785s-25.736 9.369-28.972 22.785c-.866 3.593-4.081 6.124-7.777 6.124h-40.867v41.818zm-8 16c-4.418 0-8-3.582-8-8v-5.44h-60.917v375.778h309.064v-40.506c-13.234 5.565-27.761 8.645-42.995 8.645-19.497 0-37.834-5.046-53.786-13.892h-52.059c-4.418 0-8-3.582-8-8s3.582-8 8-8h30.044c-8.804-8.205-16.284-17.812-22.069-28.47h-7.975c-4.418 0-8-3.582-8-8s3.582-8 8-8h.87c-4.077-11.558-6.303-23.982-6.303-36.918 0-3.223.146-6.412.416-9.566-1.818-1.467-2.983-3.709-2.983-6.227 0-3.36 2.073-6.231 5.009-7.416 2.189-10.278 5.801-20.034 10.62-29.053h-7.629c-4.418 0-8-3.582-8-8s3.582-8 8-8h18.026c20.38-26.159 52.166-43.016 87.819-43.016 15.233 0 29.76 3.08 42.995 8.645v-130.005h-60.917v5.44c0 4.418-3.582 8-8 8h-171.23zm271.083 379.036v-63.55l-7.33-7.193c-2.457 1.841-4.997 3.578-7.605 5.216v56.829c0 4.418-3.582 8-8 8h-325.065c-4.418 0-8-3.582-8-8v-391.779c0-4.418 3.582-8 8-8h68.917v-14.935h-77.615c-7.851 0-14.238 6.386-14.238 14.237v409.175c0 7.85 6.387 14.237 14.238 14.237h342.46c7.851 0 14.238-6.387 14.238-14.237zm108.652-9.831-56.715-55.034c-.322-.313-.698-.382-.965-.382-.008 0-.016.001-.023.001-.268.004-.655.078-.977.409l-20.476 21.104c-.322.331-.385.72-.381.988s.078.653.41.976l56.717 55.035c.531.515 1.449.501 1.965-.029l20.476-21.103c.515-.532.501-1.45-.031-1.965zm-100.422-150.008c0 45.304-36.857 82.16-82.16 82.16s-82.16-36.856-82.16-82.16 36.857-82.16 82.16-82.16 82.16 36.856 82.16 82.16zm-16 0c0-36.48-29.679-66.16-66.16-66.16s-66.16 29.68-66.16 66.16 29.679 66.16 66.16 66.16 66.16-29.68 66.16-66.16zm-177.698-292.933c-5.508 0-10 4.492-10 10s4.492 10 10 10 10-4.492 10-10-4.492-10-10-10z" fill-rule="evenodd"/></svg>