<svg id="Layer_1" enable-background="new 0 0 66 66" height="512" viewBox="0 0 66 66" width="512" xmlns="http://www.w3.org/2000/svg"><g id="icons"><g><g><path d="m57.7 56.2h-38.6c-2.7 0-5-1.8-5.6-4.5l-6.8-37.3c-.3-1.6-1.9-2.9-3.6-2.9h-1.1c-.6 0-1-.4-1-1s.4-1 1-1h1.1c2.7 0 5.1 1.9 5.6 4.5l6.8 37.3c.4 1.7 1.9 2.9 3.6 2.9h38.6c.6 0 1 .4 1 1s-.4 1-1 1z"/></g><g><path d="m56.7 49.6h-42.7c-.5 0-.9-.3-1-.8l-5-28.8c-.1-.3 0-.6.2-.8s.5-.4.8-.4h6.4c.6 0 1 .4 1 1s-.4 1-1 1h-5.2l4.7 26.8h41.1l6.8-26.8h-8c-.6 0-1-.4-1-1s.4-1 1-1h9.2c.3 0 .6.1.8.4.2.2.2.5.2.8l-7.3 28.8c-.1.5-.5.8-1 .8z"/></g><g><path d="m53 45.3h-4.1c-.6 0-1-.4-1-1s.4-1 1-1h3.3l1-3.8c.1-.5.7-.9 1.2-.7.5.1.9.7.7 1.2l-1.1 4.6c-.2.4-.5.7-1 .7z"/></g><g><g><path d="m24.6 64.7c-2.9 0-5.2-2.3-5.2-5.2s2.3-5.2 5.2-5.2 5.2 2.3 5.2 5.2-2.3 5.2-5.2 5.2zm0-8.4c-1.8 0-3.2 1.4-3.2 3.2s1.4 3.2 3.2 3.2 3.2-1.4 3.2-3.2-1.4-3.2-3.2-3.2z"/></g><g><path d="m48 64.7c-2.9 0-5.2-2.3-5.2-5.2s2.3-5.2 5.2-5.2 5.2 2.3 5.2 5.2-2.3 5.2-5.2 5.2zm0-8.4c-1.8 0-3.2 1.4-3.2 3.2s1.4 3.2 3.2 3.2 3.2-1.4 3.2-3.2-1.4-3.2-3.2-3.2z"/></g></g><g><path d="m35 42.5c-1.6 0-3.2-.2-4.7-.5-.5-.1-.9-.6-.8-1.1.3-1.9-.1-3.5-1-3.9s-2.4.4-3.6 1.9c-.3.4-.9.5-1.3.2-2.5-1.6-4.7-3.8-6.2-6.3-.3-.5-.2-1 .3-1.3 1.6-1.1 2.4-2.6 2.1-3.5-.4-.9-2-1.4-4-1.2-.5.1-1-.3-1.1-.8-.7-3-.6-6 .1-9 .1-.5.6-.8 1.1-.7 1.9.3 3.5-.1 3.9-1s-.4-2.4-2-3.6c-.4-.3-.5-.9-.2-1.3 1.5-2.3 3.7-4.5 6.3-6.2.5-.3 1.1-.2 1.4.2 1.1 1.6 2.6 2.4 3.5 2.1 1-.4 1.4-2.1 1.1-3.9-.1-.5.3-1 .8-1.1 2.9-.6 5.9-.5 8.9.2.5.1.8.6.7 1.1-.3 1.9.1 3.5 1 3.9s2.4-.4 3.6-2c.3-.4.9-.5 1.3-.2 2.5 1.6 4.7 3.8 6.2 6.3.3.5.2 1-.3 1.3-1.6 1.1-2.4 2.5-2.1 3.4.6 1 2.2 1.5 4.2 1.3.5-.1 1 .3 1.1.8.6 2.9.5 5.9-.2 8.9-.1.5-.6.8-1.1.7-1.9-.3-3.5.1-3.9 1s.4 2.4 1.9 3.6c.4.3.5.9.2 1.3-1.5 2.4-3.7 4.6-6.3 6.2-.5.3-1 .2-1.3-.3-1.1-1.6-2.6-2.4-3.5-2.1-.9.4-1.4 2-1.2 4 .1.5-.3 1-.8 1.1-1.3.4-2.7.5-4.1.5zm-3.4-2.3c2.1.4 4.2.4 6.2.1-.1-2.5.9-4.4 2.5-5.1s3.7.1 5.3 2c1.8-1.2 3.3-2.7 4.5-4.4-1.8-1.7-2.5-3.8-1.8-5.4s2.7-2.5 5.1-2.3c.4-2.1.5-4.2.2-6.2-2.4.1-4.4-.8-5.2-2.4 0 0 0-.1-.1-.1-.7-1.6.1-3.7 2-5.3-1.2-1.7-2.7-3.2-4.4-4.4-1.7 1.8-3.7 2.6-5.4 1.9-1.6-.7-2.5-2.7-2.3-5.1-2.1-.6-4.2-.6-6.2-.3.1 2.4-.8 4.4-2.4 5.1s-3.7-.1-5.3-2c-1.8 1.3-3.3 2.8-4.5 4.4 1.9 1.7 2.6 3.7 1.9 5.4-.7 1.6-2.7 2.5-5.1 2.3-.4 2.1-.5 4.2-.2 6.2 2.5-.1 4.4.9 5.1 2.5s-.1 3.7-2 5.3c1.2 1.7 2.7 3.2 4.4 4.5 1.7-1.8 3.7-2.5 5.4-1.8 1.6.7 2.5 2.6 2.3 5.1z"/></g><g><path d="m35 33.4c-1.3 0-2.7-.2-4-.7-2.9-1.1-5.3-3.2-6.6-6-2.7-5.8-.2-12.8 5.6-15.6 5.8-2.7 12.8-.2 15.6 5.6 1.3 2.8 1.5 6 .4 8.9s-3.2 5.3-6 6.6c-1.6.8-3.3 1.2-5 1.2zm-4.1-20.5c-4.9 2.3-6.9 8.1-4.7 12.9 1.1 2.3 3 4.1 5.5 5 2.4.9 5.1.8 7.4-.3s4.1-3 5-5.5.8-5.1-.3-7.4c-2.3-4.9-8.1-7-12.9-4.7z"/></g></g></g></svg>