<svg id="Layer_1" enable-background="new 0 0 512 512" height="512" viewBox="0 0 512 512" width="512" xmlns="http://www.w3.org/2000/svg"><path d="m354.132 281.656h95.86c2.564 0 4.924-1.403 6.149-3.656 1.226-2.253 1.12-4.996-.273-7.149l-32.526-50.231c-1.29-1.992-3.502-3.195-5.876-3.195h-63.334c-3.866 0-7 3.134-7 7v50.231c0 3.865 3.134 7 7 7zm7-50.231h52.527l23.461 36.231h-75.988zm128.305 136.15v-87.177c0-5.257-1.389-9.958-4.245-14.368l-40.508-62.557c-4.966-7.669-13.054-12.067-22.189-12.067h-87.224v-114.623c0-3.866-3.134-7-7-7h-246.949c-3.866 0-7 3.134-7 7v50.309h-58.322c-3.866 0-7 3.134-7 7s3.134 7 7 7h58.322v7.663c0 3.866 3.134 7 7 7s7-3.134 7-7v-7.663h32.949c3.866 0 7-3.134 7-7s-3.134-7-7-7h-32.949v-43.309h80.457v51.034c0 3.866 3.134 7 7 7h58.033c3.866 0 7-3.134 7-7v-51.034h80.458v232.949h-232.948v-43.308h32.949c3.866 0 7-3.134 7-7s-3.134-7-7-7h-32.949v-7.663c0-3.866-3.134-7-7-7s-7 3.134-7 7v7.663h-58.322c-3.866 0-7 3.134-7 7s3.134 7 7 7h58.322v95.399c-5.727 2.655-9.718 8.444-9.718 15.16v14.986c0 9.218 7.5 16.717 16.718 16.717h43.54c8.61 15.79 25.364 26.529 44.58 26.529s35.97-10.738 44.58-26.529h135.713c8.61 15.79 25.364 26.529 44.58 26.529s35.97-10.738 44.58-26.529h47.386c9.218 0 16.717-7.5 16.717-16.717v-14.986c.002-8.138-5.848-14.928-13.561-16.408zm-262.625-239.758h-44.033v-44.034h44.033zm195.682 77.589c4.424 0 8.033 1.962 10.438 5.676l40.509 62.558c1.399 2.161 1.996 4.182 1.996 6.758v11.2h-13.433c-3.866 0-7 3.134-7 7s3.134 7 7 7h13.433v61.668h-36.54c-8.61-15.791-25.364-26.529-44.581-26.529s-35.971 10.739-44.581 26.529h-14.465v-161.86zm-101.223 125.327v36.535h-107.248c-8.61-15.791-25.364-26.529-44.581-26.529s-35.971 10.739-44.581 26.529h-36.54v-36.535zm-239.949 70.955c-1.499 0-2.718-1.219-2.718-2.717v-14.986c0-1.473 1.244-2.717 2.718-2.717h38.413c-.677 3.299-1.032 6.714-1.032 10.21s.355 6.911 1.032 10.21zm88.12 26.529c-20.258 0-36.739-16.481-36.739-36.739s16.481-36.739 36.739-36.739 36.739 16.481 36.739 36.739-16.481 36.739-36.739 36.739zm49.707-26.529c.677-3.299 1.032-6.714 1.032-10.21s-.355-6.911-1.032-10.21h125.46c-.677 3.299-1.032 6.714-1.032 10.21s.355 6.911 1.032 10.21zm175.167 26.529c-20.258 0-36.739-16.481-36.739-36.739s16.481-36.739 36.739-36.739 36.739 16.481 36.739 36.739-16.481 36.739-36.739 36.739zm94.684-29.247c0 1.499-1.219 2.717-2.717 2.717h-42.26c.677-3.299 1.032-6.714 1.032-10.21s-.355-6.911-1.032-10.21h42.26c1.473 0 2.717 1.244 2.717 2.717zm-94.684-29.328c-12.04 0-21.835 9.795-21.835 21.835s9.795 21.835 21.835 21.835 21.835-9.795 21.835-21.835c0-12.039-9.795-21.835-21.835-21.835zm0 29.671c-4.32 0-7.835-3.515-7.835-7.835s3.515-7.835 7.835-7.835 7.835 3.515 7.835 7.835-3.514 7.835-7.835 7.835zm-224.874-29.671c-12.04 0-21.835 9.795-21.835 21.835s9.795 21.835 21.835 21.835 21.835-9.795 21.835-21.835c0-12.039-9.795-21.835-21.835-21.835zm0 29.671c-4.32 0-7.835-3.515-7.835-7.835s3.515-7.835 7.835-7.835 7.835 3.515 7.835 7.835-3.514 7.835-7.835 7.835zm-10.019-176.704v12.776l35.431-35.127-35.431-35.127v12.776c0 3.866-3.134 7-7 7h-106.574c-3.866 0-7-3.134-7-7s3.134-7 7-7h99.574v-22.573c0-2.826 1.699-5.375 4.308-6.461 2.609-1.087 5.614-.499 7.621 1.491l52.373 51.924c1.325 1.314 2.071 3.104 2.071 4.971s-.746 3.656-2.071 4.971l-52.373 51.924c-1.338 1.326-3.119 2.029-4.931 2.029-.906 0-1.82-.176-2.69-.539-2.608-1.087-4.308-3.636-4.308-6.461v-22.573h-99.574c-3.866 0-7-3.134-7-7s3.134-7 7-7h106.574c3.866-.001 7 3.133 7 6.999zm222.141 75.99c0 3.866-3.134 7-7 7h-20.433c-3.866 0-7-3.134-7-7s3.134-7 7-7h20.433c3.867 0 7 3.134 7 7z"/></svg>